<!DOCTYPE svg PUBLIC "-//W3C//DTD SVG 1.1//EN" "http://www.w3.org/Graphics/SVG/1.1/DTD/svg11.dtd">
<!-- Uploaded to: SVG Repo, www.svgrepo.com, Transformed by: SVG Repo Mixer Tools -->
<svg width="256px" height="256px" viewBox="0 0 20 20" version="1.1" xmlns="http://www.w3.org/2000/svg" xmlns:xlink="http://www.w3.org/1999/xlink" fill="#000000">
<g id="SVGRepo_bgCarrier" stroke-width="0"/>
<g id="SVGRepo_tracerCarrier" stroke-linecap="round" stroke-linejoin="round"/>
<g id="SVGRepo_iconCarrier"> <title>file_exe [#000000]</title> <desc>Created with Sketch.</desc> <defs> </defs> <g id="Page-1" stroke="none" stroke-width="1" fill="none" fill-rule="evenodd"> <g id="Dribbble-Light-Preview" transform="translate(-60.000000, -1399.000000)" fill="#6685FF"> <g id="icons" transform="translate(56.000000, 160.000000)"> <path d="M17.9792,1239.0005 L4.0002,1239.0005 L4.0002,1241.4385 L4.0002,1249.0005 L6.0002,1249.0005 L6.0002,1241.0005 L16.0002,1241.0005 L16.0002,1247.0005 L22.0002,1247.0005 L22.0002,1249.0005 L24.0002,1249.0005 L24.0002,1245.4385 L17.9792,1239.0005 Z M18.0002,1251.0005 L18.0002,1259.0005 L24.0002,1259.0005 L24.0002,1257.0005 L20.0002,1257.0005 L20.0002,1256.0005 L24.0002,1256.0005 L24.0002,1254.0005 L20.0002,1254.0005 L20.0002,1253.0005 L24.0002,1253.0005 L24.0002,1251.0005 L18.0002,1251.0005 Z M4.0002,1251.0005 L4.0002,1259.0005 L10.0002,1259.0005 L10.0002,1257.0005 L6.0002,1257.0005 L6.0002,1256.0005 L10.0002,1256.0005 L10.0002,1254.0005 L6.0002,1254.0005 L6.0002,1253.0005 L10.0002,1253.0005 L10.0002,1251.0005 L4.0002,1251.0005 Z M16.9792,1251.0005 L14.9792,1255.0005 L16.9792,1259.0005 L14.9792,1259.0005 L13.9792,1257.0005 L12.9792,1259.0005 L10.9792,1259.0005 L12.9792,1255.0005 L10.9792,1251.0005 L12.9792,1251.0005 L13.9792,1253.0005 L14.9792,1251.0005 L16.9792,1251.0005 Z" id="file_exe-[#000000]"> </path> </g> </g> </g> </g>
</svg>