<!DOCTYPE svg PUBLIC "-//W3C//DTD SVG 1.1//EN" "http://www.w3.org/Graphics/SVG/1.1/DTD/svg11.dtd">
<!-- Uploaded to: SVG Repo, www.svgrepo.com, Transformed by: SVG Repo Mixer Tools -->
<svg width="256px" height="256px" viewBox="0 0 1024 1024" class="icon" version="1.1" xmlns="http://www.w3.org/2000/svg" fill="#000000">
<g id="SVGRepo_bgCarrier" stroke-width="0"/>
<g id="SVGRepo_tracerCarrier" stroke-linecap="round" stroke-linejoin="round"/>
<g id="SVGRepo_iconCarrier">
<path d="M66 485.5a399.2 315.1 0 1 0 798.4 0 399.2 315.1 0 1 0-798.4 0Z" fill="#6685ff"/>
<path d="M198.6 666.6L148 866.1l197.3-80z" fill="#6685ff"/>
<path d="M906.9 528.5C900.4 672.9 756.6 836 564.7 836c-30.9 0-60 1.3-88.6-4.3 50.1 34.6 118.4 43.7 191.5 43.7 155.9 0 269.3-84.5 276.1-212.4 3-56.3-19-106.4-36.8-134.5z" fill="#a9bbff"/>
<path d="M890.3 764.4l35.8 135.5-139.5-54.3z" fill="#a9bbff"/>
<path d="M309.6 470m-46.6 0a46.6 46.6 0 1 0 93.2 0 46.6 46.6 0 1 0-93.2 0Z" fill="#FFFFFF"/>
<path d="M465.6 470m-46.6 0a46.6 46.6 0 1 0 93.2 0 46.6 46.6 0 1 0-93.2 0Z" fill="#FFFFFF"/>
<path d="M620.8 470m-46.6 0a46.6 46.6 0 1 0 93.2 0 46.6 46.6 0 1 0-93.2 0Z" fill="#FFFFFF"/>
</g>
</svg>